<svg t="1649411818878" class="icon" viewBox="0 0 1216 1024" version="1.1" xmlns="http://www.w3.org/2000/svg" p-id="2969" width="200" height="200"><path d="M1151.965441 704.0096 991.970241 704.0096 991.970241 639.979521 1151.965441 639.979521 1151.965441 63.9968 415.98752 63.9968 415.98752 639.979521 671.979841 639.979521 671.979841 704.0096 415.98752 704.0096 383.98848 704.0096 351.98944 704.0096 351.98944-0.00128 383.98848-0.00128 415.98752-0.00128 1215.963521-0.00128 1215.963521 32.029759 1215.963521 63.9968 1215.963521 704.0096 1151.965441 704.0096ZM63.99808 959.969921 799.976001 959.969921 799.976001 383.9872 543.98368 383.9872 543.98368 320.021119 799.976001 320.021119 831.975041 320.021119 863.974081 320.021119 863.974081 959.969921 863.974081 992.00096 863.974081 1024 63.99808 1024 0 1024 0 959.969921 0 383.9872 0 320.021119 63.99808 320.021119 223.99328 320.021119 223.99328 383.9872 63.99808 383.9872 63.99808 959.969921Z" p-id="2970"></path></svg>