<svg t="1652429868045" class="icon" viewBox="0 0 1024 1024" version="1.1" xmlns="http://www.w3.org/2000/svg" p-id="1405" width="200" height="200">
    <path d="M909.5 242.3V217c0-13.9-11.3-25.2-25.3-25.2H730.8v0.1h-0.3c-13.9 0-25.2 11.3-25.2 25.2s11.3 25.2 25.2 25.2h0.3v0.2H832l-86.7 101.1s-32.3-20.1-74.9-10.1c-78.5 18.4-66.2 63.8-133.1 60.7-60.3-2.8-82.8-57.7-179.9-70.6-58.5-7.8-92.7 20.1-92.7 20.1L178 242.3h456.4v-0.2c13.6-0.2 24.6-11.3 24.6-25.1s-11-24.9-24.7-25.2v-0.1H125.8c-13.9 0-25.3 11.3-25.3 25.2v25.3h25.3-25.7l323.8 353.9v202.2l161.4 100.3V596.3l323.8-353.9h-24.9 25.3z"  p-id="1406"></path>
    <path d="M748.2 340.4s-32.3-20.1-74.9-10.1c-78.5 18.4-66.2 63.8-133.1 60.7-60.3-2.8-82.8-57.7-179.9-70.6-58.5-7.8-92.7 20.1-92.7 20.1s-3.3 3-2.9 3l177.1 201.8h117.9l188.5-204.9z" p-id="1407"></path>
</svg>