<?xml version="1.0" standalone="no"?><!DOCTYPE svg PUBLIC "-//W3C//DTD SVG 1.1//EN" "http://www.w3.org/Graphics/SVG/1.1/DTD/svg11.dtd"><svg t="1645796948457" class="icon" viewBox="0 0 1024 1024" version="1.1" xmlns="http://www.w3.org/2000/svg" p-id="1954" xmlns:xlink="http://www.w3.org/1999/xlink" width="200" height="200"><defs><style type="text/css"></style></defs><path d="M928 960h-256c-17.066667 0-32-14.933333-32-32s14.933333-32 32-32h256c17.066667 0 32 14.933333 32 32s-14.933333 32-32 32zM96 960c-17.066667 0-32-14.933333-32-32 0-232.533333 187.733333-418.133333 420.266667-418.133333 83.2 0 164.266667 25.6 234.666666 72.533333 14.933333 8.533333 23.466667 27.733333 14.933334 42.666667-8.533333 14.933333-27.733333 23.466667-42.666667 14.933333-2.133333-2.133333-4.266667-2.133333-6.4-4.266667-162.133333-110.933333-384-68.266667-492.8 93.866667-42.666667 57.6-64 128-64 198.4 0 17.066667-12.8 32-32 32z" p-id="1955" fill="#bfbfbf"></path><path d="M484.266667 573.866667c-140.8 0-253.866667-113.066667-253.866667-253.866667S343.466667 64 484.266667 64s253.866667 113.066667 253.866666 253.866667c0 140.8-113.066667 256-253.866666 256z m0-445.866667c-104.533333 0-189.866667 85.333333-189.866667 189.866667s85.333333 189.866667 189.866667 189.866666 189.866667-85.333333 189.866666-189.866666-85.333333-189.866667-189.866666-189.866667zM864 844.8h-192c-17.066667 0-32-14.933333-32-32s14.933333-32 32-32h192c17.066667 0 32 14.933333 32 32s-14.933333 32-32 32zM800 731.733333h-128c-17.066667 0-32-14.933333-32-32s14.933333-32 32-32h128c17.066667 0 32 14.933333 32 32s-14.933333 32-32 32z" p-id="1956" fill="#bfbfbf"></path></svg>