<?xml version="1.0" standalone="no"?><!DOCTYPE svg PUBLIC "-//W3C//DTD SVG 1.1//EN" "http://www.w3.org/Graphics/SVG/1.1/DTD/svg11.dtd"><svg t="1646380776608" class="icon" viewBox="0 0 1024 1024" version="1.1" xmlns="http://www.w3.org/2000/svg" p-id="3161" xmlns:xlink="http://www.w3.org/1999/xlink" width="200" height="200"><defs><style type="text/css"></style></defs><path d="M850.944 351.104H296.256a76.8 76.8 0 0 0-76.8 76.8v384a76.8 76.8 0 0 0 76.8 76.8h554.688a76.8 76.8 0 0 0 76.8-76.8v-384a76.8 76.8 0 0 0-76.8-76.8zM296.256 419.392h554.688c4.672 0 8.512 3.84 8.512 8.512v384c0 4.736-3.84 8.512-8.512 8.512H296.256a8.512 8.512 0 0 1-8.512-8.512v-384c0-4.672 3.84-8.512 8.512-8.512z" p-id="3162" ></path><path d="M780.608 172.16l47.936 178.944h-70.656l-43.2-161.28a8.512 8.512 0 0 0-8.192-6.4l-2.24 0.32-535.808 143.552a8.512 8.512 0 0 0-6.016 10.496l57.024 212.8v213.632a76.672 76.672 0 0 1-23.552-37.888L96.512 355.456a76.8 76.8 0 0 1 54.272-94.08l535.808-143.552a76.8 76.8 0 0 1 94.08 54.336z" p-id="3163" ></path><path d="M512.128 640.96l7.232-21.952a11.712 11.712 0 0 1 22.208-0.064l7.424 21.952a8.512 8.512 0 0 1-8.128 11.264h-20.672a8.512 8.512 0 0 1-8.064-11.2z m68.096 65.6h3.008a8.512 8.512 0 0 0 8-11.392l-48-132.096a12.8 12.8 0 0 0-12.032-8.384h-1.28a12.8 12.8 0 0 0-12.096 8.384l-48 132.032a8.512 8.512 0 0 0 8.064 11.456h3.008a12.8 12.8 0 0 0 12.16-8.64l6.72-19.584a8.512 8.512 0 0 1 8.064-5.76h45.44c3.584 0 6.848 2.304 8.064 5.76l6.784 19.584a12.8 12.8 0 0 0 12.096 8.64z m44.16 0h38.784c11.392 0 21.056-2.56 28.864-7.488a52.864 52.864 0 0 0 18.56-17.728 38.144 38.144 0 0 0 6.784-16.576c0.832-4.608 1.344-11.712 1.6-21.376l0.128-12.8c0-15.36-0.384-26.112-1.152-32.384a45.696 45.696 0 0 0-6.976-17.92c-10.24-16.96-25.664-25.472-46.208-25.6h-40.32a12.8 12.8 0 0 0-12.8 12.8v126.272c0 7.04 5.76 12.8 12.8 12.8z m18.816-130.112h18.944a30.528 30.528 0 0 1 27.072 12.8c3.136 3.52 5.12 8.192 5.952 13.888 0.64 5.632 0.96 15.104 0.96 28.288l-0.256 17.088a123.968 123.968 0 0 1-0.704 10.624 25.216 25.216 0 0 1-4.928 12.416c-5.76 8.832-15.168 13.248-28.096 13.248h-18.944a8.512 8.512 0 0 1-8.576-8.576V584.96c0-4.672 3.84-8.512 8.576-8.512z" p-id="3164" ></path></svg>