<?xml version="1.0" standalone="no"?><!DOCTYPE svg PUBLIC "-//W3C//DTD SVG 1.1//EN" "http://www.w3.org/Graphics/SVG/1.1/DTD/svg11.dtd"><svg t="1646380676441" class="icon" viewBox="0 0 1024 1024" version="1.1" xmlns="http://www.w3.org/2000/svg" p-id="2692" xmlns:xlink="http://www.w3.org/1999/xlink" width="200" height="200"><defs><style type="text/css"></style></defs><path d="M838.533 246.63c0 16.605 13.435 30.04 30.04 30.04s30.043-13.435 30.043-30.04V94.136a30.024 30.024 0 0 0-30.044-30.039H716.078c-16.599 0-30.039 13.435-30.039 30.04s13.44 30.043 30.04 30.043h82.518L535.598 387.328l-81.377-81.382a30.019 30.019 0 0 0-21.238-8.802h-0.056a29.83 29.83 0 0 0-21.238 8.858L132.756 586.348c-11.673 11.73-11.673 30.801 0.118 42.48a30.003 30.003 0 0 0 21.182 8.74 29.9 29.9 0 0 0 21.299-8.858L433.05 369.725l81.32 81.321c11.27 11.264 31.217 11.264 42.476 0l281.697-281.85v77.434h-0.01zM774.088 382.24h125.9v577.669h-125.9v-577.67zM563.66 501.023h125.9v458.88h-125.9v-458.88zM353.229 616.945h125.9v342.958h-125.9V616.945zM142.797 743.982h125.9v215.926h-125.9V743.982z" p-id="2693" fill="#2c2c2c"></path></svg>