<?xml version="1.0" standalone="no"?><!DOCTYPE svg PUBLIC "-//W3C//DTD SVG 1.1//EN" "http://www.w3.org/Graphics/SVG/1.1/DTD/svg11.dtd"><svg t="1645796697018" class="icon" viewBox="0 0 1024 1024" version="1.1" xmlns="http://www.w3.org/2000/svg" p-id="859" xmlns:xlink="http://www.w3.org/1999/xlink" width="200" height="200"><defs><style type="text/css"></style></defs><path d="M980.322927 845.61154a22.138902 22.138902 0 0 1-19.584414 17.029924 63.010721 63.010721 0 0 0-48.535285 31.505361 62.159225 62.159225 0 0 0-4.257481 54.921507 22.138902 22.138902 0 0 1-5.960474 25.119139A244.805166 244.805166 0 0 1 814.281162 1024h-6.386222a23.416146 23.416146 0 0 1-17.881421-9.366459 63.010721 63.010721 0 0 0-51.515522-25.119138 63.862217 63.862217 0 0 0-49.812529 22.990398 22.138902 22.138902 0 0 1-24.693391 7.237718 244.379418 244.379418 0 0 1-85.149623-52.367018 21.713154 21.713154 0 0 1-5.108977-25.119139 61.733477 61.733477 0 0 0-3.831733-56.198751 63.436469 63.436469 0 0 0-47.683789-32.356857 22.138902 22.138902 0 0 1-18.732917-17.881421 243.95367 243.95367 0 0 1-4.68323-46.832293 241.399181 241.399181 0 0 1 6.386222-54.07001 22.138902 22.138902 0 0 1 19.584413-17.029925 64.287965 64.287965 0 0 0 51.94127-85.149623 22.138902 22.138902 0 0 1 5.960474-25.119139 246.082411 246.082411 0 0 1 90.684349-49.812529 22.138902 22.138902 0 0 1 24.69339 8.514962 65.139462 65.139462 0 0 0 101.328052 0 22.56465 22.56465 0 0 1 24.69339-7.237718 243.102174 243.102174 0 0 1 85.149623 51.515522 22.138902 22.138902 0 0 1 5.108978 25.544887 62.159225 62.159225 0 0 0 3.405985 57.475996 63.010721 63.010721 0 0 0 46.406544 31.50536 22.138902 22.138902 0 0 1 19.158665 17.881421 242.250677 242.250677 0 0 1 4.68323 45.555048 246.508159 246.508159 0 0 1-7.663466 57.050248z m-61.307729-74.931668A98.773563 98.773563 0 0 1 852.598492 651.896147a174.982475 174.982475 0 0 0-42.574811-24.69339 97.07057 97.07057 0 0 1-127.724435-2.980237 174.556727 174.556727 0 0 0-42.574811 24.693391 98.347815 98.347815 0 0 1-10.643703 69.82269 96.644822 96.644822 0 0 1-57.475996 45.555049 180.517201 180.517201 0 0 0-2.12874 27.247879 177.962712 177.962712 0 0 0 0 22.138902 96.219074 96.219074 0 0 1 54.07001 42.574812 97.496318 97.496318 0 0 1 10.217955 72.377179 179.239956 179.239956 0 0 0 42.574811 25.544887 89.832852 89.832852 0 0 1 65.139462-25.119139 96.219074 96.219074 0 0 1 68.119698 27.673628 174.982475 174.982475 0 0 0 42.574812-23.416147 98.347815 98.347815 0 0 1 10.643703-70.248439 96.644822 96.644822 0 0 1 58.75324-45.555048 175.408223 175.408223 0 0 0 2.554488-28.099375c-2.554489-5.108977-2.980237-11.920947-3.831733-18.732917z m-176.685468 120.060968a94.94183 94.94183 0 0 1-88.981356-100.050807 94.94183 94.94183 0 0 1 88.981356-100.050807 94.94183 94.94183 0 0 1 88.981356 100.050807 94.94183 94.94183 0 0 1-87.704111 100.050807z m0-155.398062a51.089774 51.089774 0 0 0-42.574811 55.773003 51.089774 51.089774 0 0 0 42.574811 55.347255 51.089774 51.089774 0 0 0 42.574812-55.347255 51.089774 51.089774 0 0 0-41.297567-55.773003zM639.724435 468.39871l-17.029925 11.920947a255.448869 255.448869 0 0 1-138.368137 42.574812h-5.108978a250.339892 250.339892 0 0 0-35.762842 0 375.935586 375.935586 0 0 0-340.598492 374.658341v57.050247h417.658901a435.114574 435.114574 0 0 0 42.574812 67.268202H70.073457a33.208353 33.208353 0 0 1-34.05985-32.782604v-89.407105a442.352292 442.352292 0 0 1 280.14226-412.549923l18.732917-6.81197-17.029924-11.920947a255.448869 255.448869 0 0 1-100.902304-205.63634A261.835091 261.835091 0 1 1 639.724435 468.39871z m-162.63578-398.925984a193.289644 193.289644 0 0 0 0 386.579288 191.586652 191.586652 0 0 0 193.289644-193.289644 193.715392 193.715392 0 0 0-193.289644-193.289644z" fill="#cdcdcd" p-id="860"></path></svg>